<?xml version="1.0" encoding="utf-8"?>
<!-- Generator: Adobe Illustrator 16.0.0, SVG Export Plug-In . SVG Version: 6.00 Build 0)  -->
<!DOCTYPE svg PUBLIC "-//W3C//DTD SVG 1.1//EN" "http://www.w3.org/Graphics/SVG/1.1/DTD/svg11.dtd">
<svg version="1.1" id="Layer_1" xmlns="http://www.w3.org/2000/svg" xmlns:xlink="http://www.w3.org/1999/xlink" x="0px" y="0px"
	 width="327.787px" height="327.787px" viewBox="0 0 327.787 327.787" enable-background="new 0 0 327.787 327.787"
	 xml:space="preserve">
<path fill="#FFFFFF" d="M273.735,199.867c0,6.087,4.629-35.181,1.853-46.753c-7.407-25.922-36.569-52.306-49.993-67.119
	c-13.424-14.812-37.493-33.328-77.766-33.328c-40.271,0-54.621,21.756-63.879,33.791c-9.258,12.036-22.219,32.865-23.144,43.049
	c-0.927,10.184,1.851,16.202,2.776,24.071s-2.314,11.572-3.24,23.607c-0.926,12.034-2.314,26.847,0.926,36.567
	c3.24,9.722,8.795,30.089,2.778,32.865c-6.019,2.778-11.573-8.795-17.128-18.979s-15.274-5.091-22.218-9.258
	c-6.944-4.166-17.128-3.24-17.128-3.24s12.035-5.091,9.259-11.572c-2.778-6.48-2.315-10.184-6.019-16.664
	s-7.405-10.184-5.555-15.738c1.852-5.555,4.166-6.48,0.926-12.96c-3.24-6.481-5.091-17.128-3.702-24.071
	c1.388-6.943-2.314-11.572,2.313-15.738c4.629-4.165,6.018-7.405,7.869-14.812c1.852-7.406,4.629-22.219,15.738-26.848
	c11.11-4.629,24.996-2.314,29.163-8.331c4.165-6.019,14.812-21.294,24.069-24.534s18.053-6.017,21.293-8.331
	c3.24-2.315,2.314-5.093,4.629-8.795c2.314-3.704,7.869-6.019,14.812-5.093c6.944,0.926,10.646,2.314,15.738,1.852
	s16.202,2.777,22.219,4.167c6.018,1.388,12.498-0.464,20.831-0.464c8.331,0,18.979,1.389,24.532,3.24
	c5.555,1.853,18.516,13.424,29.626,14.35c11.109,0.927,27.773,3.703,34.717,1.389s9.257-4.629,12.034-2.314
	c2.778,2.314,13.888-7.869,22.683-6.017c8.794,1.851,15.738,0,9.258,3.702c-6.481,3.703-18.979,6.943-21.757,12.036
	c-2.777,5.091-6.018,13.886-1.389,15.274s12.962-1.851,9.722,3.703c-3.241,5.555-12.962,9.259-15.276,10.185
	c-2.314,0.925-10.184,7.869-6.479,13.886c3.703,6.018,1.389,9.258,9.72,10.184c8.333,0.927,15.276,0,20.367,4.167
	c5.093,4.165,14.812,6.479,6.943,8.331c-7.869,1.853-10.184-3.24-15.738-2.776c-5.554,0.462-12.034,0.462-6.943,5.555
	c5.093,5.091,12.498,11.571,14.812,18.053c2.315,6.479,5.555,15.738,5.555,23.144c0,7.407-2.776,9.258-6.018,15.276
	c-3.24,6.017-0.926,15.738-3.24,18.979s-10.646,1.389-13.886,8.331c-3.24,6.943-6.481,18.053-9.722,16.201
	c-3.24-1.851-7.405-3.24-7.405-7.869S273.735,198.015,273.735,199.867z"/>
<path fill="#FFFFFF" d="M266.223,194.625c-12.136-5.201-41.868-4.282-50.194-3.33c-12.056,1.377-24.027,8.326-29.022,14.749
	c-2.224,2.858-5.564,2.862-7.33,2.855v-0.001c-0.044,0-0.095,0-0.142,0c-0.046,0-0.098,0-0.142,0v0.001
	c-1.766,0.007-5.105,0.003-7.329-2.855c-4.996-6.423-16.968-13.372-29.023-14.749c-8.325-0.952-38.059-1.871-50.194,3.33
	c-2.84,1.217-9.886,4.702-14.16,4.44c-7.771-0.477-24.898-6.026-24.898-6.025l0.476,11.734c0,0,19.507,4.759,22.52,5.869
	c3.015,1.109,5.641,3.172,6.786,6.186c1.145,3.013,1.303,11.734,2.854,17.762c1.601,6.22,4.123,16.812,19.982,18.397
	c15.149,1.515,35.842,0.634,42.186-0.635s15.543-6.026,18.397-11.736c2.854-5.709,6.66-20.3,12.053-20.3
	c0.176,0,0.339-0.014,0.493-0.037c0.154,0.023,0.317,0.037,0.493,0.037c5.393,0,9.198,14.591,12.053,20.3
	c2.854,5.71,12.054,10.468,18.397,11.736s27.036,2.149,42.186,0.635c15.859-1.586,17.763-12.371,19.982-18.397
	c2.221-6.027,2.855-17.762,2.855-17.762l9.198-2.855l0.634-13.956C285.333,200.018,275.104,198.432,266.223,194.625z
	 M152.987,243.868c-7.851,3.093-18.08,3.568-27.119,3.568c-9.04,0-29.261,1.189-32.829-11.895s-3.727-25.692-1.903-29.022
	c2.125-3.881,3.807-10.467,36.635-10.943c12.845-0.186,39.252,2.379,39.252,18.318C167.022,229.833,160.838,240.775,152.987,243.868
	z M265.791,235.542c-3.568,13.084-23.789,11.895-32.829,11.895s-19.269-0.476-27.119-3.568s-14.036-14.035-14.036-29.974
	c0-15.939,26.407-18.504,39.252-18.318c32.829,0.477,34.51,7.062,36.635,10.943C269.518,209.85,269.359,222.458,265.791,235.542z"/>
</svg>
