<?xml version="1.0" encoding="utf-8"?>
<!-- Generator: Adobe Illustrator 16.0.0, SVG Export Plug-In . SVG Version: 6.00 Build 0)  -->
<!DOCTYPE svg PUBLIC "-//W3C//DTD SVG 1.1//EN" "http://www.w3.org/Graphics/SVG/1.1/DTD/svg11.dtd">
<svg version="1.1" id="Bernie_2016" xmlns="http://www.w3.org/2000/svg" xmlns:xlink="http://www.w3.org/1999/xlink" x="0px"
	 y="0px" width="700px" height="526.582px" viewBox="0 0 700 526.582" enable-background="new 0 0 700 526.582"
	 xml:space="preserve">
<g id="_x2D_2016-">
	<g id="_x32_016">
		<path id="two" fill="#FFFFFF" d="M270.9,493.36l-0.28-9.101c3.92-3.779,7.28-6.859,10.08-9.52c2.8-2.66,5.04-4.9,7-6.86
			c1.96-2.1,3.22-3.78,4.06-5.6c0.84-1.54,1.26-3.36,1.26-5.32s-0.56-3.5-1.96-4.76s-3.08-1.96-5.04-1.96s-4.06,0.42-6.16,1.399
			c-2.1,0.841-3.78,2.101-5.46,3.5l-3.92-9.38c2.24-1.819,4.76-3.22,7.84-4.34c3.08-1.12,6.3-1.82,9.8-1.82
			c2.94,0,5.46,0.42,7.56,1.12c2.24,0.7,3.92,1.96,5.6,3.221c1.4,1.26,2.66,3.079,3.36,4.76c0.7,1.96,1.12,3.78,1.12,6.02
			c0,2.24-0.42,4.34-1.26,6.44c-0.84,2.1-2.24,4.2-3.92,6.3c-1.82,2.24-3.92,4.34-6.58,6.72s-5.74,5.04-9.24,7.98h21.98l0.279,10.5
			h-36.26L270.9,493.36L270.9,493.36z"/>
		<path id="zero" fill="#FFFFFF" d="M350.28,467.32c0,8.819-1.54,15.399-4.9,20.3c-3.36,4.899-8.12,7.14-14.42,7.14
			s-11.06-2.38-14.14-7s-4.62-11.34-4.62-20.16c0-8.819,1.54-15.54,4.899-20.3c3.36-4.62,7.98-7.14,14.28-7.14s11.061,2.38,14.14,7
			C348.88,451.78,350.28,458.5,350.28,467.32z M338.66,467.6c0-3.5-0.141-6.58-0.561-8.96s-0.84-4.199-1.54-5.6
			c-0.699-1.26-1.399-2.38-2.38-2.94c-0.84-0.56-1.96-0.84-2.939-0.84c-0.98,0-1.96,0.28-2.8,0.84c-0.841,0.561-1.54,1.4-2.381,2.94
			c-0.56,1.26-1.119,3.22-1.54,5.6c-0.42,2.38-0.56,5.32-0.56,8.82s0.14,6.3,0.56,8.54c0.421,2.38,0.98,4.06,1.54,5.6
			c0.7,1.261,1.4,2.381,2.381,2.94c0.84,0.56,1.96,0.84,2.939,0.84c0.98,0,1.96-0.28,2.8-0.84s1.54-1.4,2.38-2.8
			c0.561-1.26,1.12-3.221,1.4-5.46C338.52,473.76,338.66,471.1,338.66,467.6z"/>
		<path id="one" fill="#FFFFFF" d="M368.06,453.74l-11.899,2.52l-0.28-10.779l25.2-5.04v53.06H368.06V453.74L368.06,453.74z"/>
		<path id="six" fill="#FFFFFF" d="M391.02,471.52c0-3.92,0.7-7.56,2.101-11.199c1.26-3.5,3.36-6.721,6.02-9.66
			c2.66-2.94,5.88-5.32,9.66-7.141c3.78-1.96,7.98-3.359,12.88-4.06l2.801,9.38c-5.461,0.98-10.08,2.8-13.86,5.46
			s-6.16,6.021-7.28,10.08l0.28,0.28c1.54-1.26,3.5-2.521,5.46-3.36c2.1-0.979,4.06-1.399,6.58-1.399c2.1,0,3.78,0.42,5.6,1.119
			c1.82,0.7,3.221,1.82,4.48,3.221c1.26,1.26,2.38,3.08,3.08,4.899c0.699,1.96,1.12,4.2,1.12,6.721c0,2.659-0.421,5.04-1.261,7.42
			s-2.1,4.34-3.64,6.16c-1.54,1.819-3.64,3.079-6.021,4.06c-2.38,0.98-5.039,1.4-8.119,1.4s-5.881-0.561-8.261-1.82
			s-4.479-2.8-6.159-4.76c-1.681-1.96-2.94-4.48-3.78-7.28C391.44,477.96,391.02,474.88,391.02,471.52z M403.06,475.3
			c0,1.26,0.141,2.66,0.421,3.78c0.279,1.12,0.699,2.38,1.399,3.22c0.561,0.84,1.4,1.54,2.521,2.24c0.979,0.56,2.1,0.84,3.359,0.84
			c2.101,0,3.78-0.7,5.04-2.38s1.96-3.64,1.96-6.44c0-2.52-0.56-4.34-1.96-5.739c-1.26-1.4-2.939-2.101-5.04-2.101
			c-1.399,0-2.939,0.28-4.2,0.98c-1.26,0.56-2.38,1.26-3.08,2.1C403.2,472.92,403.06,474.04,403.06,475.3z"/>
	</g>
</g>
<path id="bottom_swoosh" fill="#EA504E" d="M700,417.76c0,0-2.66-0.56-7.42-1.54c-2.521-0.56-5.46-0.979-8.96-1.819
	c-3.5-0.561-7.561-1.261-12.04-2.101c-9.1-1.54-20.16-2.939-32.76-4.34c-12.601-1.4-27.16-2.66-42.7-3.5s-32.62-1.4-50.54-1.96
	c-9.1-0.14-18.2-0.14-27.72-0.14c-9.521,0-19.04,0.14-28.841,0.279c-19.6,0.42-39.76,0.98-60.34,2.24
	c-20.58,0.98-41.439,2.38-62.3,3.92c-10.5,0.84-20.86,1.82-31.22,2.66c-10.36,0.84-20.72,1.96-31.08,2.94
	c-5.04,0.56-10.22,0.979-15.26,1.54c-5.04,0.56-10.08,0.979-15.12,1.54c-5.04,0.56-10.08,1.119-14.98,1.819
	c-4.9,0.561-9.94,1.12-14.84,1.54c-19.74,1.96-38.78,3.36-56.84,3.92c-9.1,0.28-17.92,0.561-26.46,0.561
	c-8.54,0.14-16.8,0-24.64-0.141c-15.96-0.42-30.38-1.399-43.12-2.8c-12.88-1.54-24.08-3.36-33.04-5.74
	c-4.48-1.12-8.54-2.38-12.04-3.5s-6.44-2.52-8.68-3.5c-2.38-1.12-4.06-2.1-5.04-2.8c-1.12-0.7-1.82-1.12-1.82-1.12
	s0.56,0.28,1.96,0.7c1.12,0.42,3.08,0.98,5.46,1.82c2.38,0.56,5.46,1.26,8.96,1.68c3.5,0.561,7.56,0.98,12.04,1.4
	c4.48,0.279,9.66,0.56,14.98,0.699c5.6,0.141,11.34,0.141,17.78,0.141c12.74-0.141,27.16-0.7,42.7-1.54
	c7.84-0.42,15.96-0.98,24.36-1.82c8.4-0.7,17.22-1.399,26.04-2.24c17.92-1.54,36.82-3.64,56.28-6.02c9.8-1.12,19.74-2.38,29.82-3.64
	c10.08-1.121,20.44-2.381,30.66-3.221c10.359-0.979,20.72-1.959,31.22-2.8c10.5-0.84,21-1.54,31.5-2.239
	c21-1.261,42.14-2.24,62.86-2.66c20.72-0.42,41.16-0.42,60.899,0c9.94,0.279,19.601,0.56,29.12,0.979
	c9.521,0.42,18.76,0.979,27.86,1.819c18.06,1.261,35.14,3.08,50.96,5.041c15.82,2.239,30.1,4.479,42.7,7
	c12.739,2.52,23.659,5.04,32.62,7.56c4.479,1.12,8.399,2.521,11.899,3.5c3.5,1.12,6.44,2.101,8.82,2.8
	C697.48,416.92,700,417.76,700,417.76z"/>
<g id="Bernie">
	<path id="b" fill="#FFFFFF" d="M161.42,329.28c0-20.02-11.2-31.36-34.58-34.72c19.46-4.2,28.7-14.7,28.7-31.5
		c0-25.06-15.54-35.14-54.74-35.14h-63v15.82h10.78c3.08,0,4.06,1.4,4.06,5.88v96.04c0,4.34-0.98,6.16-4.06,6.16H37.8v15.82h62.86
		C143.08,367.641,161.42,356.16,161.42,329.28z M82.32,243.74h17.78c18.2,0,24.64,5.88,24.64,22.96c0,16.1-8.4,22.82-25.9,22.82
		H82.32V243.74z M82.32,303.1h21c18.34,0,26.6,6.72,26.6,24.78c0,17.5-7.56,23.94-27.86,23.94H82.32V303.1z"/>
	<path id="e1" fill="#FFFFFF" d="M271.74,311.5c0-37.1-18.34-59.22-51.66-59.22l0,0l0,0c-32.34,0-54.74,23.94-54.74,58.94l0,0
		c0,0.98,0,1.89,0.07,2.87c0,0.28,0,0.63,0.07,0.91c0,0.63,0.07,1.33,0.07,1.96c0,0.35,0.07,0.7,0.07,1.05
		c0.07,0.63,0.07,1.26,0.14,1.89c0,0.35,0.07,0.63,0.07,0.98c0.07,0.77,0.21,1.61,0.28,2.38c0,0.14,0.07,0.28,0.07,0.42
		c0.14,0.84,0.28,1.68,0.42,2.52c0.07,0.28,0.14,0.63,0.21,0.91c0.14,0.56,0.21,1.12,0.35,1.68c0.07,0.35,0.14,0.63,0.21,0.98
		c0.14,0.56,0.28,1.12,0.42,1.68c0.07,0.28,0.14,0.56,0.21,0.84c0.21,0.77,0.42,1.54,0.7,2.24c0,0.07,0.07,0.14,0.07,0.21
		c0.28,0.84,0.56,1.61,0.84,2.45c0.07,0.21,0.14,0.35,0.21,0.56c0.21,0.63,0.49,1.26,0.77,1.89c0.07,0.21,0.14,0.42,0.28,0.56
		c0.28,0.63,0.56,1.26,0.91,1.89c0.07,0.14,0.14,0.21,0.14,0.35c5.81,11.76,15.54,20.51,29.12,24.919l0.49,0.07
		c5.04,1.61,10.71,2.59,16.8,2.87l0.63,0.07c1.26,0,2.66,0.14,3.92,0.14c7.91,0,14.7-1.189,20.58-3.359
		c14.42-5.181,22.82-16.101,26.88-28.84l-16.52-7.91c-0.63,1.68-1.26,3.29-2.03,4.83s-1.54,2.94-2.38,4.27
		c-0.42,0.63-0.91,1.33-1.33,1.89c-0.49,0.63-0.98,1.19-1.47,1.75c-0.28,0.28-0.49,0.56-0.77,0.84c-1.54,1.61-3.29,3.01-5.25,4.13
		c-0.35,0.21-0.63,0.35-0.98,0.56c-0.63,0.35-1.33,0.7-2.03,0.98c-1.4,0.56-2.94,1.05-4.48,1.47c-0.77,0.21-1.61,0.351-2.45,0.489
		c-0.84,0.141-1.68,0.211-2.59,0.281c-0.91,0.069-1.82,0.069-2.73,0.069c-12.32,0-20.72-5.39-25.48-14.56
		c-0.7-1.4-1.33-2.8-1.89-4.34c-0.21-0.49-0.35-1.05-0.49-1.54c-0.35-1.05-0.63-2.17-0.91-3.29c-0.14-0.56-0.28-1.12-0.35-1.68
		c-0.56-2.87-0.91-5.95-0.98-9.24h76.58l0,0l0,0v-5.81H271.74z M242.62,301.7h-47.6c1.4-21.98,10.08-31.5,25.34-31.5
		C235.62,270.2,242.2,279.02,242.62,301.7z"/>
	<path id="r" fill="#FFFFFF" d="M288.4,279.58v64.54c0,5.32-1.26,6.02-3.64,6.02h-9.52v17.5h56V350.42H321.02
		c-2.38,0-3.64-0.7-3.64-6.02v-35.28c0-23.52,7.28-37.52,21.561-37.52c3.22,0,5.739,0.84,7.14,2.38c-6.44,2.1-10.36,8.4-10.36,14.7
		c0,8.26,6.721,15.12,14.7,15.12c12.46,0,20.58-9.66,20.58-24.22c0-16.66-9.8-27.16-25.2-27.16c-12.6,0-23.66,7.42-28.56,25.34
		v-24.64c-4.9,1.12-14.7,2.38-25.2,2.38h-17.5v17.22h10.22C287.56,272.72,288.4,273.98,288.4,279.58z"/>
	<path id="n" fill="#FFFFFF" d="M374.5,273.14h6.86c2.8,0,3.64,1.26,3.64,6.86v64.4c0,5.32-1.26,6.02-3.64,6.02h-9.521v17.221h54.88
		V350.42h-8.399c-2.38,0-3.641-0.7-3.641-6.02v-35c0-25.06,8.4-36.54,22.96-36.54c11.9,0,17.36,6.72,17.36,22.26v49.28
		c0,5.32-1.26,6.02-3.64,6.02h-8.4v17.221H497V350.42h-9.52c-2.381,0-3.641-0.7-3.641-6.02v-49.98c0-28-11.899-41.86-34.16-41.86
		c-16.939,0-28.979,7.56-35.699,23.1V253.4c-4.761,1.12-14.421,2.38-25.061,2.38h-24.64C370.02,258.44,373.94,268.52,374.5,273.14z"
		/>
	<polygon id="star" fill="#EA504E" points="508.9,248.08 522.76,237.72 536.62,248.08 531.44,231.28 545.3,220.92 528.22,220.92 
		522.76,204.12 517.58,220.92 500.5,220.92 514.36,231.28 	"/>
	<path id="i" fill="#FFFFFF" d="M510.16,350.42h-9.8v17.221h55.3v-17.5h-9.101c-2.38,0-3.5-1.12-3.5-6.02v-91
		c-4.899,1.12-14.699,2.38-25.199,2.38H500.5v17.22h8.4c3.64,0,4.76,2.1,4.76,9.24v62.44C513.66,349.16,512.68,350.42,510.16,350.42
		z"/>
	<path id="e2" fill="#FFFFFF" d="M662.34,311.64c0-37.1-18.34-59.22-51.66-59.22l0,0l0,0c-32.34,0-54.739,23.94-54.739,58.94l0,0
		c0,0.98,0,1.89,0.069,2.87c0,0.28,0,0.63,0.07,0.91c0,0.63,0.07,1.33,0.07,1.96c0,0.35,0.069,0.7,0.069,1.05
		c0.07,0.63,0.07,1.26,0.141,1.89c0,0.35,0.069,0.63,0.069,0.98c0.07,0.77,0.21,1.61,0.28,2.38c0,0.14,0.07,0.28,0.07,0.42
		c0.14,0.84,0.279,1.68,0.42,2.52c0.069,0.28,0.14,0.63,0.21,0.91c0.14,0.56,0.21,1.12,0.35,1.68c0.07,0.35,0.141,0.63,0.21,0.98
		c0.141,0.56,0.28,1.12,0.42,1.68c0.07,0.28,0.141,0.56,0.21,0.84c0.21,0.77,0.42,1.54,0.7,2.24c0,0.07,0.07,0.14,0.07,0.21
		c0.279,0.84,0.56,1.61,0.84,2.45c0.07,0.21,0.14,0.35,0.21,0.56c0.21,0.63,0.49,1.26,0.77,1.89c0.07,0.21,0.141,0.42,0.28,0.56
		c0.28,0.63,0.561,1.26,0.91,1.89c0.07,0.14,0.14,0.21,0.14,0.35c5.811,11.76,15.54,20.51,29.12,24.92l0.49,0.07
		c5.04,1.609,10.71,2.59,16.8,2.869l0.63,0.07c1.261,0,2.66,0.141,3.92,0.141c7.91,0,14.7-1.19,20.58-3.36
		c14.42-5.181,22.82-16.101,26.88-28.84l-16.52-7.84c-0.63,1.68-1.26,3.29-2.03,4.83c-0.77,1.54-1.54,2.94-2.38,4.27
		c-0.42,0.63-0.91,1.33-1.33,1.89c-0.49,0.63-0.979,1.19-1.47,1.75c-0.28,0.28-0.49,0.56-0.771,0.84c-1.54,1.61-3.29,3.01-5.25,4.13
		c-0.35,0.21-0.63,0.35-0.979,0.56c-0.63,0.35-1.33,0.7-2.03,0.98c-1.399,0.56-2.939,1.05-4.479,1.47
		c-0.771,0.21-1.61,0.35-2.45,0.49c-0.84,0.14-1.68,0.209-2.59,0.279s-1.82,0.07-2.73,0.07c-12.32,0-20.72-5.39-25.479-14.56
		c-0.7-1.4-1.33-2.8-1.891-4.34c-0.21-0.49-0.35-1.05-0.49-1.54c-0.35-1.05-0.63-2.17-0.909-3.29c-0.141-0.56-0.28-1.12-0.351-1.68
		c-0.56-2.87-0.91-5.95-0.979-9.24h76.58l0,0l0,0L662.34,311.64L662.34,311.64z M633.22,301.84h-47.6
		c1.399-21.98,10.08-31.5,25.34-31.5S632.8,279.16,633.22,301.84z"/>
</g>
<path id="top_swoosh" fill="#FFFFFF" d="M275.24,364.279c-1.54,0.141-3.22,0.281-4.76,0.421c-9.94,0.979-19.88,2.1-29.54,3.22
	 M442.96,356.439c-5.46,0-10.92,0-16.24,0l-54.88,1.261c-13.02,0.42-25.899,1.12-39.06,2.1c-0.561,0-0.98,0.14-1.54,0.14
	c0,0-48.44,2.66-110.46,10.36c-3.64,0.42-7.14,0.841-10.78,1.261c-9.8,1.119-19.32,2.239-28.7,3.219
	c-9.38,0.98-18.48,1.961-27.58,2.66c-17.92,1.4-34.86,2.94-50.4,3.5c-7.84,0.28-15.26,0.701-22.4,0.84
	c-7.14,0.141-13.72,0.421-20.16,0.421c-6.44,0-12.32-0.14-17.78-0.28c-5.6-0.279-10.5-0.561-14.98-0.98
	c-9.1-0.84-16.24-2.379-20.86-3.64c-2.38-0.7-4.2-1.26-5.46-1.96C0.56,375.061,0,374.779,0,374.779s0.56,0.421,1.82,0.98
	c1.12,0.7,2.94,1.54,5.32,2.66c2.38,1.12,5.18,2.24,8.82,3.359C19.6,382.9,23.38,384.02,28,385c9.1,2.1,20.3,3.641,33.04,5.04
	c12.88,1.12,27.3,2.101,43.12,2.239c15.82,0.141,32.9,0,51.1-0.84c18.2-0.84,37.1-2.239,56.7-4.199c9.94-0.98,19.88-2.24,29.82-3.36
	c4.9-0.56,10.08-1.12,15.12-1.54c5.04-0.561,10.22-0.98,15.26-1.54c20.58-2.1,41.439-3.92,62.16-5.6
	c20.859-1.54,41.72-3.08,62.3-3.921c20.58-0.979,40.88-1.539,60.34-1.959s38.5-0.141,56.42,0.14s35,0.979,50.54,2.24
	c15.54,0.979,30.1,2.38,42.7,3.78c12.74,1.399,23.8,3.08,32.76,4.619c4.48,0.7,8.54,1.541,12.04,2.24c3.5,0.7,6.44,1.26,8.96,1.96
	c4.76,1.12,7.42,1.82,7.42,1.82s-2.8-1.4-7.42-3.08c-2.38-0.7-5.32-1.54-8.82-2.66c-3.5-0.979-7.42-2.239-11.899-3.22
	c-8.26-2.24-27.44-6.58-26.18-6.58l-21.841-3.221c-8.54-1.26-17.64-2.659-27.439-3.92c-2.8-0.279-5.74-0.699-8.54-0.979
	c0,0-24.01-3.08-55.3-4.34c-0.98,0-2.24-0.14-3.36-0.14"/>
</svg>
