<?xml version="1.0" encoding="utf-8"?>
<!-- Generator: Adobe Illustrator 16.0.0, SVG Export Plug-In . SVG Version: 6.00 Build 0)  -->
<!DOCTYPE svg PUBLIC "-//W3C//DTD SVG 1.1//EN" "http://www.w3.org/Graphics/SVG/1.1/DTD/svg11.dtd">
<svg version="1.1" id="Layer_2" xmlns="http://www.w3.org/2000/svg" xmlns:xlink="http://www.w3.org/1999/xlink" x="0px" y="0px"
	 width="493.902px" height="493.902px" viewBox="0 0 493.902 493.902" enable-background="new 0 0 493.902 493.902"
	 xml:space="preserve">
<circle fill="#FFFFFF" cx="339.007" cy="317.109" r="8.795"/>
<g>
	<path fill="#FFFFFF" d="M238.354,492.766c-28.421,0-57.737-9.172-80.431-25.162c-21.69-15.283-34.639-34.828-34.639-52.283
		c0,0,0.977-2.809,4.275-2.809c3.298,0,3.054,2.809,3.054,2.809c0,15.074,11.788,32.379,31.532,46.293
		c21.487,15.141,49.264,23.824,76.209,23.824c50.092,0,75.489-19.316,75.489-57.412c0,0,0.639-1.898,3.772-1.898
		c3.137,0,3.557,1.898,3.557,1.898C321.173,457.561,306.807,492.766,238.354,492.766z"/>
</g>
<path fill="#FFFFFF" d="M426.468,257.01c3.908-17.59,12.37-39-3.901-65.949c-10.798-17.884-23.46-71.84-37.142-89.43
	c-13.682-17.59-43.975-71.337-67.428-69.383s-37.135,14.658-37.135,14.658S283.795,0,229.069,0
	c-36.158,0-56.679,19.544-56.679,19.544s-43.976,11.237-50.816,56.19c0.488,1.955-31.271,30.783-31.271,56.19
	c0,25.408,10.749,40.555,7.817,57.168s-36.157,56.189-36.157,99.188c0,42.998,31.271,79.156,56.679,90.883
	s23.453-9.773,23.453-9.773s-18.078-32.736-22.964-48.373c-4.886-15.636-6.137-35.27-4.397-51.792
	c1.955-18.567-3.42-29.806,3.42-54.236c6.84-24.431,23.942-51.305,29.805-70.36c5.275-17.146,34.203-54.237,57.657-61.077
	c23.453-6.84,48.862-5.864,60.589-1.955c11.727,3.909,35.179,24.919,50.813,48.373c15.637,23.454,11.729,54.726,15.637,75.248
	s-3.908,35.18,8.795,51.792c12.703,16.613,24.43,33.225,24.43,45.929c0,12.705,4.885,24.43-8.795,38.111
	c-13.682,13.684-39.088,21.5-39.088,21.5l26.385,2.932c0,0,14.658,7.818,1.953,20.521c-12.703,12.705-34.2,23.453-34.2,23.453
	s55.698,38.111,94.788-33.225C446.013,304.895,422.56,274.601,426.468,257.01z M113.233,345.729c-10.677,0-34-19.77-34-43.333
	s27.333-40.667,27.333-40.667s-5.333,14.436-5.333,38S123.911,345.729,113.233,345.729z"/>
<circle fill="#FFFFFF" cx="127.399" cy="422.395" r="8.5"/>
<circle fill="#FFFFFF" cx="137.899" cy="443.895" r="8.5"/>
<circle fill="#FFFFFF" cx="154.399" cy="461.395" r="8.5"/>
<circle fill="#FFFFFF" cx="174.899" cy="472.895" r="8.5"/>
<circle fill="#FFFFFF" cx="195.399" cy="481.395" r="8.5"/>
<circle fill="#FFFFFF" cx="216.399" cy="485.402" r="8.5"/>
<circle fill="#FFFFFF" cx="238.899" cy="485.402" r="8.5"/>
<circle fill="#FFFFFF" cx="262.399" cy="485.402" r="8.5"/>
<circle fill="#FFFFFF" cx="283.399" cy="479.395" r="8.5"/>
<circle fill="#FFFFFF" cx="303.399" cy="467.895" r="8.5"/>
<circle fill="#FFFFFF" cx="313.899" cy="449.395" r="8.5"/>
</svg>
